<?xml version="1.0" standalone="no"?>
<!DOCTYPE svg PUBLIC "-//W3C//DTD SVG 20010904//EN"
 "http://www.w3.org/TR/2001/REC-SVG-20010904/DTD/svg10.dtd">
<svg version="1.0" xmlns="http://www.w3.org/2000/svg"
 width="632.000000pt" height="580.000000pt" viewBox="0 0 632.000000 580.000000"
 preserveAspectRatio="xMidYMid meet">
<metadata>
Created by potrace 1.16, written by Peter Selinger 2001-2019
</metadata>
<g transform="translate(0.000000,580.000000) scale(0.100000,-0.100000)"
fill="#000000" stroke="none">
<path d="M2230 5051 c-139 -43 -228 -173 -202 -297 6 -29 42 -123 80 -210 78
-178 111 -272 147 -411 24 -90 25 -110 25 -366 l0 -270 -23 21 c-114 107 -316
27 -451 -177 -90 -136 -118 -280 -97 -494 53 -536 335 -1136 656 -1393 151
-121 248 -151 395 -120 145 31 274 117 321 215 13 28 28 49 34 47 5 -3 41 -15
79 -27 61 -19 83 -21 185 -16 297 16 914 214 1095 352 l48 36 61 -22 c45 -16
86 -23 148 -23 83 -1 89 0 184 48 215 107 343 298 308 461 -8 36 -6 44 24 86
126 177 152 455 51 558 l-30 31 35 82 c46 109 61 181 61 303 0 83 -4 109 -23
152 -21 48 -73 106 -115 130 -15 8 -13 17 21 89 32 68 37 89 38 150 0 63 -4
79 -39 147 -69 136 -203 253 -396 346 -75 36 -126 54 -180 62 -191 29 -491
-41 -825 -191 -268 -120 -600 -286 -635 -317 l-36 -31 -11 71 c-51 316 -254
651 -512 845 -155 117 -312 166 -421 133z m173 -105 c60 -18 185 -91 262 -153
33 -27 87 -81 121 -122 133 -158 217 -341 259 -562 38 -202 40 -205 106 -272
33 -33 62 -57 65 -55 3 3 -5 30 -17 59 l-21 54 54 48 c36 33 110 77 230 138
178 90 228 112 228 104 0 -3 -35 -23 -79 -44 -92 -47 -266 -163 -334 -223
l-47 -43 21 -40 c37 -68 79 -115 194 -212 60 -52 131 -122 157 -155 60 -79
168 -296 207 -415 36 -108 71 -277 71 -338 0 -64 -26 -188 -49 -237 l-21 -43
4 40 c15 131 17 222 6 320 -6 60 -15 114 -20 120 -4 5 -19 48 -33 95 -74 244
-202 416 -407 548 -253 163 -296 226 -360 532 -47 227 -141 403 -309 582 -141
149 -272 238 -376 253 -52 8 -116 -16 -151 -58 -44 -52 -33 -100 114 -497 90
-240 95 -279 98 -700 1 -210 -2 -342 -6 -310 -4 30 -8 147 -9 260 -1 236 -15
402 -41 504 -17 69 -70 210 -144 388 -38 91 -66 198 -66 257 0 48 34 113 81
155 36 33 44 36 102 36 35 0 85 -6 110 -14z m2702 -792 c77 -89 99 -146 98
-259 0 -44 -8 -111 -17 -149 l-17 -70 35 -35 c72 -76 94 -165 71 -294 -8 -45
-15 -100 -15 -122 -1 -22 -11 -79 -23 -126 l-22 -86 23 -18 c13 -9 33 -36 43
-59 29 -63 24 -136 -17 -272 -39 -128 -62 -179 -119 -264 -21 -31 -28 -46 -16
-36 20 18 21 18 21 1 0 -42 -34 -134 -68 -185 -44 -66 -139 -140 -219 -171
-81 -31 -199 -32 -267 -1 -27 12 -55 22 -63 22 -8 0 -103 -40 -211 -89 -332
-149 -530 -218 -767 -266 -193 -39 -311 -30 -429 33 -28 15 -94 69 -146 120
-98 96 -103 110 -15 37 224 -184 355 -207 696 -121 167 42 291 88 484 178 83
39 184 84 225 100 41 17 76 31 78 33 1 1 -5 25 -14 52 -15 45 -20 52 -56 62
-49 15 -116 75 -135 120 -19 44 -18 162 2 226 19 65 21 62 -22 70 -100 18
-195 90 -234 178 -41 92 -28 214 32 298 l19 27 -38 7 c-54 10 -123 42 -155 73
-92 87 -125 319 -68 477 43 119 160 258 261 307 30 14 107 51 170 82 63 30
136 73 161 96 69 62 182 85 162 34 -3 -7 -30 -27 -60 -44 -30 -17 -53 -33 -50
-36 2 -3 44 4 93 15 90 20 109 17 102 -14 -2 -12 -22 -23 -63 -35 -130 -36
-366 -143 -491 -221 -76 -49 -159 -135 -185 -194 -31 -70 -49 -169 -38 -209
31 -112 130 -186 248 -186 167 0 499 114 672 230 135 92 271 248 313 360 54
146 33 271 -69 404 l-37 48 37 -28 c21 -15 65 -60 100 -100z m-2749 -971 c-2
-10 -10 -79 -17 -153 -11 -130 -11 -140 14 -276 44 -234 115 -416 229 -580 46
-68 154 -180 207 -217 14 -9 22 -19 19 -23 -12 -12 -133 71 -193 132 -71 72
-109 134 -175 281 -113 253 -164 462 -158 644 4 104 7 120 31 162 27 46 53 64
43 30z"/>
<path d="M5120 3588 c-92 -136 -470 -357 -765 -449 -81 -25 -199 -49 -240 -49
-32 0 -35 -3 -47 -42 -7 -24 -13 -81 -13 -128 0 -93 17 -140 71 -194 54 -53
80 -61 195 -60 181 3 355 59 518 168 180 119 306 260 362 403 32 83 33 234 1
314 -38 94 -42 96 -82 37z"/>
<path d="M5130 2919 c-182 -168 -488 -305 -770 -346 l-55 -8 -14 -72 c-18 -90
-6 -141 48 -194 100 -101 349 -91 573 22 100 51 234 192 294 311 32 62 33 176
4 272 -12 36 -22 66 -23 66 -1 -1 -27 -24 -57 -51z"/>
<path d="M5025 2293 c-37 -27 -149 -80 -230 -108 -55 -18 -109 -29 -172 -32
-51 -3 -93 -10 -93 -16 0 -23 44 -85 73 -103 41 -24 143 -25 213 -1 116 40
190 112 220 215 9 29 14 55 12 57 -1 2 -12 -3 -23 -12z"/>
<path d="M1129 3986 c-63 -17 -134 -61 -186 -114 -81 -83 -173 -267 -173 -345
0 -30 7 -38 71 -80 39 -26 76 -47 81 -47 6 0 -6 18 -26 40 -58 64 -59 114 -6
221 89 176 298 203 503 66 82 -55 119 -110 125 -182 4 -48 0 -65 -28 -121 -59
-120 -141 -177 -220 -154 -80 23 -62 2 48 -55 87 -45 87 -45 103 -24 55 74
126 202 151 276 27 77 30 96 26 172 -6 103 -29 161 -89 226 -99 107 -252 156
-380 121z"/>
<path d="M666 3092 c-4 -53 -14 -169 -22 -257 -17 -185 -21 -176 81 -195 80
-15 103 -8 48 14 -28 12 -45 27 -53 47 -17 40 -8 161 14 195 l18 26 126 -7
c70 -4 131 -10 135 -12 10 -6 -1 -137 -15 -173 -11 -29 -25 -40 -55 -40 -13 0
-23 -4 -23 -9 0 -4 33 -11 73 -14 39 -4 83 -10 97 -14 25 -6 25 -6 7 15 -16
18 -18 35 -15 121 1 54 6 102 9 105 7 7 228 -10 236 -18 10 -9 -15 -186 -28
-202 -6 -8 -24 -14 -40 -14 -55 0 -37 -17 31 -29 38 -6 75 -11 83 -11 11 0 15
30 21 143 3 78 11 193 17 256 10 106 7 148 -7 105 -3 -10 -10 -30 -15 -43
l-10 -24 -132 7 c-219 11 -488 35 -524 47 -27 9 -33 16 -33 39 0 16 -4 31 -9
34 -5 3 -12 -38 -15 -92z"/>
<path d="M1431 2233 c24 -63 19 -66 -291 -206 -318 -143 -330 -146 -358 -97
-15 26 -32 40 -32 25 0 -3 15 -36 34 -73 18 -37 66 -143 106 -237 40 -93 77
-176 82 -182 15 -18 42 -16 120 9 77 25 89 40 26 32 -63 -7 -87 11 -131 95
-50 99 -49 136 8 168 73 41 468 215 500 220 27 4 36 0 58 -28 37 -46 34 -22
-7 59 -18 37 -50 106 -71 155 -21 48 -41 87 -46 87 -5 0 -4 -12 2 -27z"/>
<path d="M1718 1761 c-20 -50 -73 -86 -162 -107 -89 -23 -66 -37 59 -38 103
-1 185 27 185 61 0 23 -49 123 -59 123 -5 0 -15 -18 -23 -39z"/>
<path d="M1763 1552 c15 -16 27 -40 27 -54 0 -25 -214 -339 -328 -483 -49 -61
-66 -69 -117 -51 -29 10 19 -29 153 -124 120 -85 157 -102 102 -45 l-34 35 18
37 c13 28 119 185 162 241 4 5 258 -177 262 -187 5 -14 -176 -249 -197 -256
-11 -3 -30 -1 -41 5 -26 14 -43 3 -18 -11 9 -5 73 -50 142 -99 124 -89 181
-118 118 -61 -17 17 -32 37 -32 46 0 9 16 41 36 73 61 94 321 457 339 472 13
11 22 11 51 1 55 -20 50 -8 -18 39 -35 24 -99 70 -144 102 -44 32 -84 58 -88
58 -5 0 6 -16 23 -35 17 -20 31 -40 31 -45 0 -4 -23 -41 -51 -82 -28 -40 -60
-88 -72 -105 -12 -18 -27 -31 -33 -29 -5 2 -65 43 -133 91 -81 57 -121 92
-117 101 13 33 139 193 156 199 11 3 29 1 40 -5 12 -6 26 -10 33 -7 6 2 -24
28 -68 57 -44 29 -109 75 -144 102 -71 53 -99 63 -58 20z"/>
<path d="M4425 1553 c-28 -10 -71 -30 -96 -45 -63 -37 -161 -145 -195 -215
-26 -51 -29 -69 -29 -153 0 -88 3 -101 33 -162 43 -88 106 -152 190 -191 61
-29 76 -32 162 -32 88 0 101 3 165 34 89 44 190 143 231 226 26 54 29 70 29
160 0 92 -3 106 -32 167 -40 86 -97 147 -175 189 -55 29 -74 33 -148 36 -63 3
-98 -1 -135 -14z m87 -133 c73 -27 159 -98 218 -178 81 -110 100 -195 57 -264
-84 -139 -273 -126 -431 29 -145 141 -181 264 -105 356 63 76 156 97 261 57z"/>
<path d="M3809 1146 c-42 -18 -111 -46 -153 -61 -83 -30 -98 -46 -37 -38 34 5
41 2 55 -20 20 -30 198 -480 220 -556 l16 -53 -31 -29 c-17 -16 -27 -29 -22
-29 5 0 63 22 129 49 65 26 136 54 156 60 56 18 56 31 -1 24 l-49 -6 -26 50
c-28 56 -191 463 -212 531 -15 49 -7 77 26 87 19 6 29 26 13 24 -5 0 -42 -15
-84 -33z"/>
<path d="M2665 1031 c-109 -27 -190 -93 -242 -199 -37 -74 -38 -79 -38 -182 1
-94 4 -111 29 -163 75 -152 242 -238 438 -224 275 19 447 321 323 567 -27 53
-105 129 -163 159 -88 45 -252 65 -347 42z m165 -52 c130 -29 203 -169 185
-353 -23 -238 -142 -355 -290 -287 -94 43 -137 122 -143 264 -9 200 52 345
158 375 45 13 38 13 90 1z"/>
</g>
</svg>
